HIERARCHY
ROOT Root
{
	OFFSET 0.00000 0.00000 0.00000
	CHANNELS 6 Xposition Yposition Zposition Zrotation Xrotation Yrotation
	JOINT Hip
	{
		OFFSET 0 0 0	
		CHANNELS 3 Zrotation Xrotation Yrotation
		JOINT Tummy
		{
			OFFSET 0 0.04 0	
			CHANNELS 3 Zrotation Xrotation Yrotation
			JOINT ChestBottom
			{
				OFFSET 0 0.194 0	
				CHANNELS 3 Zrotation Xrotation Yrotation
				JOINT ChestTop
				{
					OFFSET 0 0.166 0	
					CHANNELS 3 Zrotation Xrotation Yrotation
					JOINT LeftCollar
					{
						OFFSET 0 0.1 0	
						CHANNELS 3 Zrotation Xrotation Yrotation
						JOINT LeftUpperArm
						{
							OFFSET 0.156 -0.02 0.03	
							CHANNELS 3 Zrotation Xrotation Yrotation
							JOINT LeftForeArm
							{
								OFFSET 0.035 -0.27 -0.01	
								CHANNELS 3 Zrotation Xrotation Yrotation
								JOINT LeftHand
								{
									OFFSET 0.01 -0.27 0.01	
									CHANNELS 3 Zrotation Xrotation Yrotation
									End Site
									{
										OFFSET 0 -0.15 0
									}
								}
							}
						}
					}
					JOINT RightCollar
					{
						OFFSET 0 0.1 0	
						CHANNELS 3 Zrotation Xrotation Yrotation
						JOINT RightUpperArm
						{
							OFFSET -0.156 -0.02 0.03	
							CHANNELS 3 Zrotation Xrotation Yrotation
							JOINT RightForeArm
							{
								OFFSET -0.035 -0.27 -0.01	
								CHANNELS 3 Zrotation Xrotation Yrotation
								JOINT RightHand
								{
									OFFSET -0.01 -0.27 0.01	
									CHANNELS 3 Zrotation Xrotation Yrotation
									End Site
									{
										OFFSET 0 -0.15 0
									}
								}
							}
						}
					}
					JOINT Neck
					{
						OFFSET 0 0.1 0	
						CHANNELS 3 Zrotation Xrotation Yrotation
						JOINT Head
						{
							OFFSET 0 0.127 0.03	
							CHANNELS 3 Zrotation Xrotation Yrotation
							End Site
							{
								OFFSET 0 0.127 0.03
							}
						}
					}
				}
			}
		}
	}
	JOINT LeftHip
	{
		OFFSET 0 0 0	
		CHANNELS 3 Zrotation Xrotation Yrotation
		JOINT LeftThigh
		{
			OFFSET 0.088 -0.06 0	
			CHANNELS 3 Zrotation Xrotation Yrotation
			JOINT LeftLowerLeg
			{
				OFFSET 0 -0.39 0.02	
				CHANNELS 3 Zrotation Xrotation Yrotation
				JOINT LeftFootTop
				{
					OFFSET 0 -0.43 -0.02	
					CHANNELS 3 Zrotation Xrotation Yrotation
					JOINT LeftFootFront
					{
						OFFSET 0 -0.07 0.085	
						CHANNELS 3 Zrotation Xrotation Yrotation
						End Site
						{
							OFFSET 0 -0.005 0.09
						}
					}
				}
				JOINT LeftHeel
				{
					OFFSET 0 -0.43 -0.02	
					CHANNELS 3 Zrotation Xrotation Yrotation
					End Site
					{
						OFFSET 0 -0.075 -0.05
					}
				}
			}
		}
	}
	JOINT RightHip
	{
		OFFSET 0 0 0	
		CHANNELS 3 Zrotation Xrotation Yrotation
		JOINT RightThigh
		{
			OFFSET -0.088 -0.06 0	
			CHANNELS 3 Zrotation Xrotation Yrotation
			JOINT RightLowerLeg
			{
				OFFSET 0 -0.39 0.02	
				CHANNELS 3 Zrotation Xrotation Yrotation
				JOINT RightFootTop
				{
					OFFSET 0 -0.43 -0.02	
					CHANNELS 3 Zrotation Xrotation Yrotation
					JOINT RightFootFront
					{
						OFFSET 0 -0.07 0.085	
						CHANNELS 3 Zrotation Xrotation Yrotation
						End Site
						{
							OFFSET 0 -0.005 0.09
						}
					}
				}
				JOINT RightHeel
				{
					OFFSET 0 -0.43 -0.02	
					CHANNELS 3 Zrotation Xrotation Yrotation
					End Site
					{
						OFFSET 0 -0.075 -0.05
					}
				}
			}
		}
	}
}
MOTION
Frames: 15
Frame Time: 0.0015083
0 0.98401 0 -0 0 -0 6.8873 9.635 -8.7692 -3.5131 -2.0031 -6.0978 -3.5131 -2.0031 -6.0978 -2.9368 -1.708 -5.1137 -0 0 -0 35.033 13.586 17.599 -39.604 2.3349 -43.948 -0 0 -0 -0 0 -0 4.4127 26.617 -36.531 34.701 7.5393 30.519 -0 0 -0 5.3627 6.0449 1.2335 5.3627 6.0449 1.2335 6.8873 9.635 -8.7692 -2.2768 -28.735 15.42 -0 0 -0 -0 0 -0 -0 0 -0 -0 0 -0 6.8873 9.635 -8.7692 -3.8199 -6.7024 -16.185 -5.3652 10.066 4.936 -0 0 -0 -0 0 -0 -0 0 -0 
0 0.98401 0 -0 0 -0 6.8923 9.6411 -8.8278 -3.5058 -2.0002 -6.0983 -3.5058 -2.0002 -6.0983 -2.9306 -1.7055 -5.1142 -0 0 -0 35.01 13.594 17.679 -39.602 2.3537 -43.894 -0 0 -0 -0 0 -0 4.3774 26.575 -36.589 34.689 7.6128 30.517 -0 0 -0 5.3591 6.046 1.229 5.3591 6.046 1.229 6.8923 9.6411 -8.8278 -2.2478 -28.76 15.476 -0 0 -0 -0 0 -0 -0 0 -0 -0 0 -0 6.8923 9.6411 -8.8278 -3.8356 -6.7407 -16.134 -5.357 10.095 4.9008 -0 0 -0 -0 0 -0 -0 0 -0 
0 0.98401 0 -0 0 -0 6.8976 9.6476 -8.8889 -3.4981 -1.9972 -6.099 -3.4981 -1.9972 -6.099 -2.9242 -1.7029 -5.1148 -0 0 -0 34.987 13.603 17.762 -39.6 2.3733 -43.838 -0 0 -0 -0 0 -0 4.3406 26.531 -36.65 34.676 7.6894 30.514 -0 0 -0 5.3553 6.047 1.2243 5.3553 6.047 1.2243 6.8976 9.6476 -8.8889 -2.2174 -28.786 15.535 -0 0 -0 -0 0 -0 -0 0 -0 -0 0 -0 6.8976 9.6476 -8.8889 -3.8521 -6.7805 -16.081 -5.3483 10.125 4.8642 -0 0 -0 -0 0 -0 -0 0 -0 
0 0.98401 0 -0 0 -0 6.9032 9.6542 -8.9526 -3.4902 -1.9939 -6.0997 -3.4902 -1.9939 -6.0997 -2.9176 -1.7001 -5.1154 -0 0 -0 34.961 13.612 17.848 -39.598 2.3938 -43.78 -0 0 -0 -0 0 -0 4.3022 26.485 -36.713 34.663 7.7693 30.512 -0 0 -0 5.3514 6.0481 1.2195 5.3514 6.0481 1.2195 6.9032 9.6542 -8.9526 -2.1857 -28.813 15.596 -0 0 -0 -0 0 -0 -0 0 -0 -0 0 -0 6.9032 9.6542 -8.9526 -3.8693 -6.8218 -16.025 -5.339 10.157 4.8261 -0 0 -0 -0 0 -0 -0 0 -0 
0 0.98401 0 -0 0 -0 6.909 9.6612 -9.0192 -3.4818 -1.9905 -6.1004 -3.4818 -1.9905 -6.1004 -2.9106 -1.6972 -5.116 -0 0 -0 34.935 13.622 17.939 -39.596 2.4152 -43.719 -0 0 -0 -0 0 -0 4.262 26.438 -36.78 34.649 7.8525 30.509 -0 0 -0 5.3472 6.0491 1.2145 5.3472 6.0491 1.2145 6.909 9.6612 -9.0192 -2.1526 -28.841 15.66 -0 0 -0 -0 0 -0 -0 0 -0 -0 0 -0 6.909 9.6612 -9.0192 -3.8873 -6.8647 -15.968 -5.3292 10.19 4.7864 -0 0 -0 -0 0 -0 -0 0 -0 
0 0.98401 0 -0 0 -0 6.915 9.6685 -9.0885 -3.4731 -1.9869 -6.1012 -3.4731 -1.9869 -6.1012 -2.9032 -1.6941 -5.1168 -0 0 -0 34.908 13.632 18.033 -39.593 2.4374 -43.656 -0 0 -0 -0 0 -0 4.2201 26.387 -36.848 34.634 7.9393 30.506 -0 0 -0 5.3429 6.0501 1.2094 5.3429 6.0501 1.2094 6.915 9.6685 -9.0885 -2.1179 -28.871 15.727 -0 0 -0 -0 0 -0 -0 0 -0 -0 0 -0 6.915 9.6685 -9.0885 -3.9062 -6.9093 -15.908 -5.3187 10.223 4.7451 -0 0 -0 -0 0 -0 -0 0 -0 
0 0.98401 0 -0 0 -0 6.9213 9.6761 -9.1608 -3.4639 -1.9831 -6.1022 -3.4639 -1.9831 -6.1022 -2.8956 -1.6908 -5.1176 -0 0 -0 34.879 13.642 18.132 -39.591 2.4606 -43.59 -0 0 -0 -0 0 -0 4.1764 26.335 -36.92 34.618 8.0295 30.503 -0 0 -0 5.3383 6.0512 1.2042 5.3383 6.0512 1.2042 6.9213 9.6761 -9.1608 -2.0818 -28.901 15.797 -0 0 -0 -0 0 -0 -0 0 -0 -0 0 -0 6.9213 9.6761 -9.1608 -3.9259 -6.9555 -15.846 -5.3076 10.259 4.7021 -0 0 -0 -0 0 -0 -0 0 -0 
0 0.98401 0 -0 0 -0 6.9279 9.6839 -9.2361 -3.4544 -1.979 -6.1032 -3.4544 -1.979 -6.1032 -2.8876 -1.6873 -5.1185 -0 0 -0 34.849 13.652 18.235 -39.588 2.4848 -43.521 -0 0 -0 -0 0 -0 4.1309 26.28 -36.994 34.601 8.1235 30.5 -0 0 -0 5.3335 6.0522 1.1988 5.3335 6.0522 1.1988 6.9279 9.6839 -9.2361 -2.044 -28.933 15.87 -0 0 -0 -0 0 -0 -0 0 -0 -0 0 -0 6.9279 9.6839 -9.2361 -3.9466 -7.0034 -15.781 -5.2958 10.295 4.6574 -0 0 -0 -0 0 -0 -0 0 -0 
0 0.98401 0 -0 0 -0 6.9347 9.6921 -9.3146 -3.4444 -1.9747 -6.1043 -3.4444 -1.9747 -6.1043 -2.8793 -1.6837 -5.1195 -0 0 -0 34.817 13.663 18.343 -39.586 2.5099 -43.449 -0 0 -0 -0 0 -0 4.0835 26.223 -37.072 34.584 8.2213 30.497 -0 0 -0 5.3285 6.0531 1.1933 5.3285 6.0531 1.1933 6.9347 9.6921 -9.3146 -2.0046 -28.966 15.945 -0 0 -0 -0 0 -0 -0 0 -0 -0 0 -0 6.9347 9.6921 -9.3146 -3.9681 -7.053 -15.714 -5.2832 10.332 4.611 -0 0 -0 -0 0 -0 -0 0 -0 
0 0.98401 0 -0 0 -0 6.9419 9.7006 -9.3962 -3.4341 -1.9702 -6.1055 -3.4341 -1.9702 -6.1055 -2.8706 -1.6798 -5.1205 -0 0 -0 34.784 13.675 18.455 -39.583 2.536 -43.374 -0 0 -0 -0 0 -0 4.0341 26.164 -37.152 34.565 8.3228 30.493 -0 0 -0 5.3233 6.0541 1.1876 5.3233 6.0541 1.1876 6.9419 9.7006 -9.3962 -1.9635 -29 16.024 -0 0 -0 -0 0 -0 -0 0 -0 -0 0 -0 6.9419 9.7006 -9.3962 -3.9907 -7.1043 -15.644 -5.2699 10.371 4.5629 -0 0 -0 -0 0 -0 -0 0 -0 
0 0.98401 0 -0 0 -0 6.9493 9.7094 -9.481 -3.4233 -1.9655 -6.1069 -3.4233 -1.9655 -6.1069 -2.8616 -1.6758 -5.1217 -0 0 -0 34.75 13.687 18.572 -39.58 2.5632 -43.297 -0 0 -0 -0 0 -0 3.9828 26.102 -37.235 34.546 8.4283 30.49 -0 0 -0 5.3178 6.055 1.1818 5.3178 6.055 1.1818 6.9493 9.7094 -9.481 -1.9207 -29.035 16.106 -0 0 -0 -0 0 -0 -0 0 -0 -0 0 -0 6.9493 9.7094 -9.481 -4.0142 -7.1574 -15.571 -5.2558 10.411 4.513 -0 0 -0 -0 0 -0 -0 0 -0 
0 0.98401 0 -0 0 -0 6.9571 9.7186 -9.5691 -3.412 -1.9605 -6.1083 -3.412 -1.9605 -6.1083 -2.8521 -1.6715 -5.123 -0 0 -0 34.714 13.699 18.694 -39.577 2.5914 -43.216 -0 0 -0 -0 0 -0 3.9294 26.037 -37.321 34.525 8.5377 30.487 -0 0 -0 5.312 6.0559 1.1759 5.312 6.0559 1.1759 6.9571 9.7186 -9.5691 -1.8762 -29.072 16.191 -0 0 -0 -0 0 -0 -0 0 -0 -0 0 -0 6.9571 9.7186 -9.5691 -4.0386 -7.2122 -15.497 -5.2409 10.452 4.4613 -0 0 -0 -0 0 -0 -0 0 -0 
0 0.98401 0 -0 0 -0 6.9652 9.728 -9.6605 -3.4003 -1.9552 -6.1099 -3.4003 -1.9552 -6.1099 -2.8424 -1.667 -5.1243 -0 0 -0 34.677 13.711 18.82 -39.574 2.6207 -43.133 -0 0 -0 -0 0 -0 3.874 25.969 -37.411 34.504 8.6511 30.483 -0 0 -0 5.306 6.0567 1.1698 5.306 6.0567 1.1698 6.9652 9.728 -9.6605 -1.8298 -29.11 16.28 -0 0 -0 -0 0 -0 -0 0 -0 -0 0 -0 6.9652 9.728 -9.6605 -4.0641 -7.2688 -15.419 -5.2252 10.495 4.4078 -0 0 -0 -0 0 -0 -0 0 -0 
0 0.98401 0 -0 0 -0 6.9735 9.7378 -9.7552 -3.3882 -1.9497 -6.1116 -3.3882 -1.9497 -6.1116 -2.8322 -1.6623 -5.1258 -0 0 -0 34.638 13.724 18.952 -39.571 2.651 -43.046 -0 0 -0 -0 0 -0 3.8167 25.899 -37.503 34.481 8.7684 30.479 -0 0 -0 5.2997 6.0574 1.1636 5.2998 6.0574 1.1636 6.9735 9.7378 -9.7552 -1.7817 -29.149 16.372 -0 0 -0 -0 0 -0 -0 0 -0 -0 0 -0 6.9735 9.7378 -9.7552 -4.0906 -7.327 -15.339 -5.2086 10.539 4.3526 -0 0 -0 -0 0 -0 -0 0 -0 
0 0.98401 0 -0 0 -0 6.9822 9.748 -9.8533 -3.3756 -1.9439 -6.1135 -3.3756 -1.9439 -6.1135 -2.8216 -1.6573 -5.1274 -0 0 -0 34.598 13.738 19.088 -39.568 2.6824 -42.956 -0 0 -0 -0 0 -0 3.7573 25.826 -37.598 34.458 8.8897 30.476 -0 0 -0 5.2932 6.0582 1.1574 5.2932 6.0582 1.1574 6.9822 9.748 -9.8533 -1.7317 -29.19 16.466 -0 0 -0 -0 0 -0 -0 0 -0 -0 0 -0 6.9822 9.748 -9.8533 -4.1181 -7.3868 -15.257 -5.1911 10.583 4.2957 -0 0 -0 -0 0 -0 -0 0 -0 
